<svg width="24" height="17" viewBox="0 0 24 17" fill="none" xmlns="http://www.w3.org/2000/svg">
<path fill-rule="evenodd" clip-rule="evenodd" d="M4.01118 4.1196C3.99604 4.13325 3.96633 4.16156 3.93354 4.19339C3.90978 4.21646 3.89078 4.23511 3.85147 4.27386L1.67616 6.41775C1.6192 6.47655 1.57963 6.51603 1.4877 6.60664C1.4364 6.65719 1.39874 6.69602 1.3177 6.78088C1.16702 6.9246 1.00814 7.09616 0.859249 7.27727C0.718862 7.42364 0.606692 7.59412 0.528353 7.78036C0.367066 8.26465 0.367066 8.73535 0.510736 9.17253L0.52998 9.22347C0.608953 9.40777 0.720453 9.57672 0.859224 9.72251C1.00825 9.9023 1.16712 10.0739 1.33513 10.2367C1.39874 10.304 1.4364 10.3428 1.4877 10.3934L1.67616 10.5791L3.65945 12.5369C3.75219 12.6283 3.79774 12.6727 3.8505 12.7223C3.90673 12.7807 3.96579 12.8387 4.02507 12.8937C4.03568 12.903 6.56342 15.3926 6.56342 15.3926C6.64149 15.4696 6.70446 15.53 6.84612 15.6648C6.86115 15.6793 6.88398 15.7022 6.89099 15.7094C6.92745 15.7472 6.9486 15.7691 6.9627 15.783C7.25748 16.0739 7.59638 16.3184 7.96713 16.5076C8.34701 16.694 8.7423 16.8222 9.15004 16.8929C9.53523 16.955 9.91678 16.9882 10.2993 16.9936C10.3651 16.9949 10.4197 16.9956 10.5416 16.9968C10.6593 16.998 10.7111 16.9986 10.7748 16.9999L18.3069 17C18.3846 16.9986 18.4371 16.998 18.556 16.9968C18.6791 16.9956 18.7344 16.9949 18.805 16.9936C19.189 16.9869 19.5733 16.9526 19.9535 16.8909C20.3703 16.8214 20.7712 16.691 21.1454 16.5035C21.5225 16.3148 21.8667 16.0679 22.165 15.7724C22.4617 15.4788 22.7108 15.1413 22.9032 14.7724C23.0931 14.3978 23.2235 14.0045 23.2937 13.5988C23.3575 13.2196 23.3913 12.839 23.3954 12.4576C23.3988 12.3791 23.4003 12.3041 23.4025 12.138C23.4035 12.0591 23.4041 12.0244 23.4049 11.9816L23.405 4.98981C23.404 4.93534 23.4035 4.90074 23.4025 4.82327L23.4014 4.74278C23.3998 4.64128 23.398 4.56512 23.3949 4.48928C23.3907 4.13025 23.3582 3.75455 23.298 3.38269C23.2246 2.9709 23.0945 2.58132 22.9101 2.21602C22.7163 1.84294 22.4688 1.50805 22.1733 1.21693C21.8788 0.924423 21.5367 0.678569 21.1619 0.490418C20.7894 0.306533 20.396 0.178107 19.9899 0.107241C19.6006 0.0461235 19.2184 0.0140679 18.8354 0.00949072C18.7087 0.00425352 18.5966 0.00314815 18.3485 0.00314815C18.2672 0.00172515 18.1721 0.000841628 18.0653 0.000399076C17.9848 6.60177e-05 17.9209 0 17.7767 0H11.3594C11.0715 0 10.9412 0.000537435 10.777 0.00323558C10.5395 0.00314815 10.4274 0.00425352 10.2829 0.00994754C9.91879 0.0137774 9.53723 0.0458787 9.15963 0.105528C8.7423 0.177816 8.34701 0.306015 7.97635 0.487769C7.59638 0.681617 7.25748 0.926129 6.96243 1.21728C6.9486 1.2309 6.92745 1.25276 6.89242 1.2891C6.88398 1.29781 6.84612 1.33519 6.84612 1.33519C6.70446 1.46999 6.64149 1.53044 6.56342 1.60738L6.2376 1.92849L4.07062 4.06727C4.05163 4.0822 4.03131 4.09976 4.01118 4.1196ZM17.7767 1.25926C17.9191 1.25926 17.9819 1.25932 18.0599 1.25965C18.1618 1.26007 18.2517 1.2609 18.3378 1.26232C18.5795 1.26241 18.6803 1.2634 18.8021 1.2682C19.1409 1.27249 19.4612 1.29936 19.7782 1.34904C20.0517 1.39687 20.3275 1.48689 20.5858 1.61444C20.8359 1.73995 21.0675 1.90644 21.2682 2.10572C21.4712 2.3058 21.6398 2.53389 21.7695 2.78352C21.8959 3.03402 21.9875 3.30816 22.038 3.59095C22.0866 3.89234 22.1139 4.20687 22.1178 4.5221C22.1208 4.60292 22.1224 4.66963 22.1238 4.76148L22.1249 4.83991C22.126 4.92022 22.1265 4.95673 22.1274 5.0024L22.1273 11.9693C22.1265 12.0033 22.126 12.0399 22.1249 12.1216C22.1228 12.2767 22.1215 12.3444 22.1182 12.4263C22.1144 12.7612 22.0863 13.0774 22.0337 13.39C21.9851 13.6708 21.8939 13.9458 21.7634 14.2033C21.6346 14.4503 21.4635 14.6821 21.2594 14.884C21.0565 15.085 20.8228 15.2526 20.5667 15.3809C20.3074 15.5107 20.0298 15.601 19.7432 15.6488C19.427 15.7001 19.1045 15.7289 18.7812 15.7345C18.7148 15.7358 18.6623 15.7365 18.5434 15.7376C18.4203 15.7388 18.3651 15.7395 18.2944 15.7409L10.7876 15.7407C10.731 15.7395 10.6763 15.7388 10.5544 15.7376C10.4368 15.7365 10.3849 15.7358 10.3212 15.7346C9.99806 15.73 9.67922 15.7022 9.36376 15.6514C9.0845 15.6029 8.80634 15.5127 8.5455 15.3848C8.30074 15.2598 8.06858 15.0923 7.86646 14.8928L7.81657 14.8413C7.76699 14.7902 7.74553 14.7684 7.72085 14.7468C7.59358 14.6256 7.53564 14.5699 7.4669 14.5022L4.93383 12.0057C4.9107 11.985 4.8967 11.9724 4.88704 11.964C4.84126 11.9206 4.80382 11.8833 4.76842 11.8463C4.69529 11.7764 4.65522 11.7374 4.56329 11.6468L2.58001 9.68903L2.39118 9.50293C2.35197 9.46429 2.32042 9.43176 2.24814 9.35607C2.09081 9.20301 1.9588 9.05981 1.83532 8.90959L1.79668 8.86673C1.76447 8.83412 1.73774 8.79675 1.71743 8.756C1.66827 8.58813 1.66846 8.40991 1.71798 8.24212C1.73713 8.20301 1.76271 8.16723 1.79373 8.13624L1.83727 8.08802C1.95873 7.93879 2.08938 7.79705 2.22849 7.66363C2.32042 7.56824 2.35197 7.53571 2.39118 7.49707C2.49091 7.39878 2.53546 7.35432 2.59107 7.29662L4.56329 5.35318L4.75495 5.16429C4.7931 5.12669 4.80947 5.11062 4.8302 5.09049L4.87242 5.0531C4.90311 5.02597 4.92013 5.01093 4.93702 4.99429L7.14141 2.8186L7.4669 2.49781C7.53564 2.43006 7.59358 2.37439 7.72085 2.25325C7.74553 2.23164 7.76699 2.20984 7.81492 2.16039L7.86618 2.10744C8.06858 1.90772 8.30074 1.74022 8.55472 1.61058C8.80634 1.48729 9.0845 1.39708 9.37143 1.34733C9.67737 1.29907 9.9962 1.27225 10.3157 1.26866C10.4557 1.2634 10.5565 1.26241 10.7876 1.26241C10.9531 1.25978 11.0786 1.25926 11.3594 1.25926H17.7767ZM11.7252 11.8325C11.6735 11.8824 11.6117 11.9232 11.5421 11.9515C11.327 12.0391 11.0795 11.9902 10.9152 11.8276C10.6919 11.6065 10.6919 11.249 10.9152 11.028C10.9478 10.9957 10.9837 10.9679 11.022 10.9447L13.5029 8.4971L10.9157 5.95002L10.9231 5.94266C10.8723 5.89163 10.8308 5.83066 10.802 5.76195C10.7131 5.5499 10.7628 5.30597 10.9278 5.1441C11.1521 4.92397 11.5148 4.92397 11.7391 5.1441C11.7713 5.17564 11.799 5.21029 11.8222 5.24721L14.3129 7.69794L16.824 5.22047C16.8428 5.19365 16.8642 5.16807 16.8883 5.14408C17.0518 4.98212 17.2984 4.93337 17.5127 5.02059C17.7271 5.10781 17.8669 5.31379 17.8669 5.54232C17.8669 5.69457 17.8048 5.83681 17.7 5.94059L17.7064 5.94685L15.1233 8.49535L17.6473 10.9789C17.6687 10.9947 17.6894 11.012 17.7089 11.0311C17.8732 11.1923 17.9227 11.4353 17.8342 11.6465C17.7457 11.8578 17.5367 11.9956 17.3048 11.9956C17.1505 11.9956 17.0063 11.9345 16.9011 11.8315L16.8954 11.8371L14.313 9.29473L11.733 11.8402L11.7252 11.8325Z" fill="black"/>
</svg>
