<svg width="87" height="43" viewBox="0 0 87 43" fill="none" xmlns="http://www.w3.org/2000/svg">
<g filter="url(#filter0_d_1_975)">
<path fill-rule="evenodd" clip-rule="evenodd" d="M0.976715 7.36C0.976715 4.78376 0.976715 3.49564 1.47809 2.51164C1.9191 1.6461 2.62281 0.942388 3.48836 0.50137C4.47235 0 5.76047 0 8.33672 0H79.6167C82.193 0 83.4811 0 84.4651 0.50137C85.3306 0.942388 86.0343 1.6461 86.4753 2.51164C86.9767 3.49564 86.9767 4.78376 86.9767 7.36V34.64C86.9767 37.2162 86.9767 38.5044 86.4753 39.4884C86.0343 40.3539 85.3306 41.0576 84.4651 41.4986C83.4811 42 82.193 42 79.6167 42H8.33672C5.76047 42 4.47235 42 3.48836 41.4986C2.62281 41.0576 1.9191 40.3539 1.47809 39.4884C0.976715 38.5044 0.976715 37.2162 0.976715 34.64V7.36Z" fill="#ADB3BC"/>
</g>
<defs>
<filter id="filter0_d_1_975" x="0.976715" y="0" width="86" height="43" filterUnits="userSpaceOnUse" color-interpolation-filters="sRGB">
<feFlood flood-opacity="0" result="BackgroundImageFix"/>
<feColorMatrix in="SourceAlpha" type="matrix" values="0 0 0 0 0 0 0 0 0 0 0 0 0 0 0 0 0 0 127 0" result="hardAlpha"/>
<feOffset dy="1"/>
<feColorMatrix type="matrix" values="0 0 0 0 0.537255 0 0 0 0 0.541176 0 0 0 0 0.552941 0 0 0 1 0"/>
<feBlend mode="normal" in2="BackgroundImageFix" result="effect1_dropShadow_1_975"/>
<feBlend mode="normal" in="SourceGraphic" in2="effect1_dropShadow_1_975" result="shape"/>
</filter>
</defs>
</svg>
