<svg width="20" height="16" viewBox="0 0 20 16" fill="none" xmlns="http://www.w3.org/2000/svg">
<path d="M19.2161 10.1742H14.7701V14.0332C14.7701 14.111 14.7701 14.1823 14.7701 14.2568C14.7701 14.3216 14.7701 14.3832 14.7673 14.448C14.7653 14.5869 14.7522 14.7255 14.7281 14.8627C14.7018 14.9989 14.6543 15.131 14.5869 15.2548C14.5179 15.3784 14.4278 15.491 14.32 15.5885C14.2117 15.6859 14.088 15.7678 13.9532 15.8315C13.8166 15.8925 13.6716 15.9361 13.5222 15.9611C13.3723 15.9827 13.2209 15.9946 13.0692 15.9968C12.9986 15.9968 12.9301 16 12.8609 16H7.14154C7.07094 16 7.0028 15.9968 6.93326 15.9968C6.78156 15.9946 6.63021 15.9827 6.48032 15.9611C6.33099 15.9361 6.18609 15.8925 6.04963 15.8315C5.91478 15.7678 5.79114 15.6859 5.68283 15.5885C5.57496 15.4911 5.48485 15.3784 5.41594 15.2548C5.34856 15.131 5.301 14.9989 5.27473 14.8627C5.25045 14.7255 5.23723 14.5869 5.23519 14.448C5.23519 14.3832 5.23237 14.3216 5.23237 14.2568C5.23237 14.1823 5.23237 14.111 5.23237 14.0332V10.1742H0.716091C0.259273 10.1742 -0.326752 9.27015 0.221852 8.76792C0.688202 8.34346 8.01776 1.63629 9.55166 0.239773C9.66437 0.112636 9.82359 0.0274241 9.99965 0H10.0117C10.164 0.00758178 10.3054 0.0748465 10.4 0.18469C11.9339 1.58121 19.2885 8.34346 19.7552 8.76792C20.3042 9.27015 19.8445 10.1742 19.2161 10.1742Z" fill="black"/>
</svg>
